<svg width="250" height="280" viewBox="0 0 250 280" xmlns="http://www.w3.org/2000/svg">
  <defs>
    <linearGradient id="accessoriesGradient" x1="0%" y1="0%" x2="100%" y2="100%">
      <stop offset="0%" style="stop-color:#1e40af;stop-opacity:1" />
      <stop offset="50%" style="stop-color:#3b82f6;stop-opacity:1" />
      <stop offset="100%" style="stop-color:#06b6d4;stop-opacity:1" />
    </linearGradient>
  </defs>
  <rect width="250" height="280" fill="url(#accessoriesGradient)" rx="12"/>
  
  <!-- Cricket Kit Bag -->
  <rect x="70" y="90" width="110" height="60" fill="#ffffff" rx="8"/>
  
  <!-- Bag zipper -->
  <rect x="75" y="95" width="100" height="4" fill="#1e40af" rx="2"/>
  
  <!-- Bag handles -->
  <rect x="105" y="80" width="6" height="15" fill="#1e40af" rx="3"/>
  <rect x="139" y="80" width="6" height="15" fill="#1e40af" rx="3"/>
  
  <!-- Handle connection -->
  <path d="M105 85 Q125 75 145 85" stroke="#1e40af" stroke-width="3" fill="none"/>
  
  <!-- Bag compartments -->
  <rect x="78" y="110" width="94" height="2" fill="#1e40af" rx="1"/>
  <rect x="78" y="125" width="94" height="2" fill="#1e40af" rx="1"/>
  
  <!-- Side pocket -->
  <rect x="175" y="105" width="8" height="25" fill="none" stroke="#1e40af" stroke-width="2" rx="2"/>
  
  <!-- Water Bottle -->
  <rect x="90" y="105" width="8" height="20" fill="#06b6d4" rx="2"/>
  <circle cx="94" cy="103" r="3" fill="#1e40af"/>
  
  <!-- Towel -->
  <rect x="110" y="108" width="15" height="3" fill="#ffffff" rx="1"/>
  <rect x="110" y="113" width="15" height="3" fill="#ffffff" rx="1"/>
  <rect x="110" y="118" width="15" height="3" fill="#ffffff" rx="1"/>
  
  <!-- Protective Gear -->
  <rect x="135" y="105" width="12" height="18" fill="#ffffff" rx="2"/>
  <rect x="138" y="108" width="6" height="12" fill="none" stroke="#1e40af" stroke-width="1" rx="1"/>
  
  <!-- Grip tape -->
  <rect x="155" y="110" width="10" height="3" fill="#1e40af" rx="1"/>
  <rect x="155" y="115" width="10" height="3" fill="#ffffff" rx="1"/>
  <rect x="155" y="120" width="10" height="3" fill="#1e40af" rx="1"/>
  
  <circle cx="60" cy="60" r="15" fill="rgba(255,255,255,0.1)"/>
  <circle cx="190" cy="230" r="18" fill="rgba(255,255,255,0.1)"/>
  
  <text x="125" y="190" text-anchor="middle" fill="white" font-family="Arial, sans-serif" font-size="20" font-weight="bold">Accessories</text>
  <text x="125" y="220" text-anchor="middle" fill="white" font-family="Arial, sans-serif" font-size="14" opacity="0.9">89 Products</text>
</svg>0" height="280" viewBox="0 0 250 280" xmlns="http://www.w3.org/2000/svg">
  <defs>
    <linearGradient id="accessoriesGradient" x1="0%" y1="0%" x2="100%" y2="100%">
      <stop offset="0%" style="stop-color:#20B2AA;stop-opacity:1" />
      <stop offset="100%" style="stop-color:#00CED1;stop-opacity:1" />
    </linearGradient>
  </defs>
  <rect width="250" height="280" fill="url(#accessoriesGradient)" rx="12"/>
  <circle cx="190" cy="60" r="20" fill="rgba(255,255,255,0.1)"/>
  <circle cx="60" cy="220" r="25" fill="rgba(255,255,255,0.1)"/>
  <text x="125" y="120" text-anchor="middle" fill="white" font-family="Arial, sans-serif" font-size="50">🎒</text>
  <text x="125" y="180" text-anchor="middle" fill="white" font-family="Arial, sans-serif" font-size="20" font-weight="bold">Accessories</text>
  <text x="125" y="210" text-anchor="middle" fill="white" font-family="Arial, sans-serif" font-size="14" opacity="0.9">41 Products</text>
</svg>